<?xml version="1.0" encoding="UTF-8"?>
<svg width="40px" height="40px" viewBox="0 0 40 40" version="1.1" xmlns="http://www.w3.org/2000/svg" xmlns:xlink="http://www.w3.org/1999/xlink">
    <g id="Symbols" stroke="none" stroke-width="1" fill="none" fill-rule="evenodd">
        <g id="instagram" fill-rule="nonzero" fill="#FFFFFF">
            <g transform="translate(4.000000, 4.000000)">
                <circle id="Oval" fill-opacity="0.3" cx="16" cy="16" r="16"></circle>
                <path d="M19.7,9.1 L11.4,9.1 C10,9.1 8.8,10.3 8.8,11.7 L8.8,14.4 L8.8,20 C8.8,21.4 10,22.6 11.4,22.6 L19.7,22.6 C21.1,22.6 22.3,21.4 22.3,20 L22.3,14.5 L22.3,11.8 C22.3,10.3 21.1,9.1 19.7,9.1 Z M20.4,10.7 L20.7,10.7 L20.7,11 L20.7,13 L18.4,13 L18.4,10.7 L20.4,10.7 Z M13.6,14.5 C14,13.9 14.7,13.5 15.5,13.5 C16.3,13.5 17,13.9 17.4,14.5 C17.7,14.9 17.8,15.4 17.8,15.9 C17.8,17.2 16.7,18.3 15.4,18.3 C14.1,18.3 13,17.2 13,15.9 C13.2,15.3 13.3,14.9 13.6,14.5 Z M21,20 C21,20.7 20.4,21.3 19.7,21.3 L11.4,21.3 C10.7,21.3 10.1,20.7 10.1,20 L10.1,14.5 L12.1,14.5 C11.9,14.9 11.8,15.4 11.8,15.9 C11.8,17.9 13.5,19.6 15.5,19.6 C17.5,19.6 19.2,17.9 19.2,15.9 C19.2,15.4 19.1,14.9 18.9,14.5 L20.9,14.5 L20.9,20 L21,20 Z" id="Shape"></path>
            </g>
        </g>
    </g>
</svg>